<svg width="20" height="20" viewBox="0 0 20 20" fill="none" xmlns="http://www.w3.org/2000/svg">
<path fill-rule="evenodd" clip-rule="evenodd" d="M16.704 4.15297C16.7826 4.2126 16.8486 4.28713 16.8983 4.3723C16.948 4.45747 16.9804 4.5516 16.9937 4.64932C17.007 4.74703 17.0009 4.8464 16.9757 4.94175C16.9505 5.0371 16.9068 5.12654 16.847 5.20497L8.84703 15.705C8.78214 15.79 8.6998 15.8602 8.60555 15.9108C8.51129 15.9614 8.4073 15.9913 8.30056 15.9984C8.19382 16.0055 8.08679 15.9897 7.98666 15.952C7.88653 15.9143 7.79562 15.8557 7.72003 15.78L3.22003 11.28C3.08755 11.1378 3.01543 10.9498 3.01885 10.7555C3.02228 10.5611 3.10099 10.3758 3.23841 10.2384C3.37582 10.1009 3.56121 10.0222 3.75551 10.0188C3.94981 10.0154 4.13785 10.0875 4.28003 10.22L8.17403 14.113L15.654 4.29597C15.7744 4.13792 15.9526 4.0341 16.1495 4.00729C16.3463 3.98048 16.5458 4.03287 16.704 4.15297Z" fill="#22C55E"/>
</svg>
