<svg width="20" height="20" viewBox="0 0 20 20" fill="none" xmlns="http://www.w3.org/2000/svg">
<path d="M6.27997 5.22003C6.1378 5.08755 5.94975 5.01543 5.75545 5.01885C5.56115 5.02228 5.37576 5.10099 5.23835 5.23841C5.10094 5.37582 5.02222 5.56121 5.0188 5.75551C5.01537 5.94981 5.08749 6.13785 5.21997 6.28003L8.93997 10L5.21997 13.72C5.14628 13.7887 5.08718 13.8715 5.04619 13.9635C5.0052 14.0555 4.98316 14.1548 4.98138 14.2555C4.9796 14.3562 4.99813 14.4562 5.03585 14.5496C5.07357 14.643 5.12971 14.7278 5.20093 14.7991C5.27215 14.8703 5.35698 14.9264 5.45037 14.9642C5.54376 15.0019 5.64379 15.0204 5.74449 15.0186C5.8452 15.0168 5.94451 14.9948 6.03651 14.9538C6.12851 14.9128 6.21131 14.8537 6.27997 14.78L9.99997 11.06L13.72 14.78C13.7886 14.8537 13.8714 14.9128 13.9634 14.9538C14.0554 14.9948 14.1547 15.0168 14.2554 15.0186C14.3562 15.0204 14.4562 15.0019 14.5496 14.9642C14.643 14.9264 14.7278 14.8703 14.799 14.7991C14.8702 14.7278 14.9264 14.643 14.9641 14.5496C15.0018 14.4562 15.0203 14.3562 15.0186 14.2555C15.0168 14.1548 14.9947 14.0555 14.9538 13.9635C14.9128 13.8715 14.8537 13.7887 14.78 13.72L11.06 10L14.78 6.28003C14.9124 6.13785 14.9846 5.94981 14.9811 5.75551C14.9777 5.56121 14.899 5.37582 14.7616 5.23841C14.6242 5.10099 14.4388 5.02228 14.2445 5.01885C14.0502 5.01543 13.8621 5.08755 13.72 5.22003L9.99997 8.94003L6.27997 5.22003Z" fill="#18181B"/>
</svg>
