<svg width="40" height="40" viewBox="0 0 40 40" fill="none" xmlns="http://www.w3.org/2000/svg">
<rect width="40" height="40" rx="8" fill="#EF4444"/>
<path d="M18 11C18 10.4477 18.4477 10 19 10H22V12H31V24C31 24.7879 30.8448 25.5681 30.5433 26.2961C30.2417 27.0241 29.7998 27.6855 29.2426 28.2426C28.6855 28.7998 28.0241 29.2417 27.2961 29.5433C26.5681 29.8448 25.7879 30 25 30V26C25.2626 26 25.5227 25.9483 25.7654 25.8478C26.008 25.7472 26.2285 25.5999 26.4142 25.4142C26.5999 25.2285 26.7472 25.008 26.8478 24.7654C26.9483 24.5227 27 24.2626 27 24V16H20L22 18V26H18V16H13V24C13 24.7879 12.8448 25.5681 12.5433 26.2961C12.2417 27.0241 11.7998 27.6855 11.2426 28.2426C10.6855 28.7998 10.0241 29.2417 9.2961 29.5433C8.56815 29.8448 7.78793 30 7 30V26C7.26264 26 7.52272 25.9483 7.76537 25.8478C8.00802 25.7472 8.2285 25.5999 8.41421 25.4142C8.59993 25.2285 8.74725 25.008 8.84776 24.7654C8.94827 24.5227 9 24.2626 9 24V13C9 12.4477 9.44772 12 10 12H18V11Z" fill="white"/>
</svg>
